<svg width="153" height="32" viewBox="0 0 153 32" fill="none" xmlns="http://www.w3.org/2000/svg">
<g clip-path="url(#clip0_2007_195)">
<path d="M1.82 6.4H16.576V10.46H6.16V13.652H11.088C13.216 13.652 14.8867 14.1467 16.1 15.136C17.3133 16.1067 17.92 17.628 17.92 19.7C17.92 23.9 15.204 26 9.772 26H1.82V6.4ZM10.108 17.712H6.16V21.94H9.94C10.4067 21.94 10.808 21.9213 11.144 21.884C11.4987 21.828 11.8627 21.7347 12.236 21.604C12.6093 21.4547 12.8987 21.2213 13.104 20.904C13.3093 20.5867 13.412 20.1947 13.412 19.728C13.412 19.28 13.3093 18.916 13.104 18.636C12.9173 18.3373 12.6373 18.132 12.264 18.02C11.9093 17.8893 11.5733 17.8053 11.256 17.768C10.9387 17.7307 10.556 17.712 10.108 17.712ZM21.8971 16.312L19.9651 13.372C20.6744 12.6067 21.6171 12.0467 22.7931 11.692C23.9878 11.3187 25.1824 11.132 26.3771 11.132C28.2624 11.132 29.7278 11.664 30.7731 12.728C31.8184 13.792 32.3411 15.276 32.3411 17.18V26H28.2811V24.684C27.8704 25.1507 27.2824 25.5147 26.5171 25.776C25.7704 26.0373 25.0518 26.168 24.3611 26.168C22.8304 26.168 21.5611 25.748 20.5531 24.908C19.5451 24.068 19.0411 22.9013 19.0411 21.408C19.0411 20.2693 19.3958 19.3267 20.1051 18.58C20.8144 17.8333 21.6358 17.32 22.5691 17.04C23.5211 16.76 24.5478 16.62 25.6491 16.62C26.7504 16.62 27.6278 16.7413 28.2811 16.984C28.3184 16.2747 28.1318 15.752 27.7211 15.416C27.2918 15.08 26.6944 14.912 25.9291 14.912C24.5664 14.912 23.2224 15.3787 21.8971 16.312ZM25.2011 22.668C25.8171 22.668 26.4144 22.5187 26.9931 22.22C27.5904 21.9213 28.0198 21.52 28.2811 21.016V20.344C27.6278 20.1013 26.8904 19.98 26.0691 19.98C25.4344 19.98 24.8931 20.036 24.4451 20.148C23.6424 20.4093 23.2411 20.8293 23.2411 21.408C23.2411 21.856 23.4371 22.1827 23.8291 22.388C24.2398 22.5747 24.6971 22.668 25.2011 22.668ZM38.8434 31.6H34.7834V11.44H38.8434V12.196C39.1981 11.86 39.6928 11.5987 40.3274 11.412C40.9621 11.2253 41.5501 11.132 42.0914 11.132C44.2754 11.132 46.0114 11.8227 47.2994 13.204C48.6061 14.5853 49.2594 16.3493 49.2594 18.496C49.2594 20.7173 48.5874 22.5653 47.2434 24.04C45.8994 25.496 44.1448 26.224 41.9794 26.224C40.2621 26.224 39.2168 25.9813 38.8434 25.496V31.6ZM41.6434 14.912C40.3928 14.912 39.4594 15.4627 38.8434 16.564V21.212C39.0674 21.5853 39.4314 21.884 39.9354 22.108C40.4394 22.332 40.9341 22.444 41.4194 22.444C42.5208 22.444 43.3981 22.1173 44.0514 21.464C44.7234 20.792 45.0594 19.9053 45.0594 18.804C45.0594 17.6093 44.7794 16.6667 44.2194 15.976C43.6594 15.2667 42.8008 14.912 41.6434 14.912ZM63.9883 5.196L64.6883 8.864C63.755 9.29333 62.5696 9.592 61.1323 9.76C59.5456 9.96533 58.5843 10.1147 58.2483 10.208C55.747 10.824 54.375 12.2147 54.1323 14.38C55.271 12.98 56.979 12.28 59.2563 12.28C61.2536 12.28 62.8496 12.8867 64.0443 14.1C65.2576 15.2947 65.8643 16.872 65.8643 18.832C65.8643 21.0907 65.183 22.9013 63.8203 24.264C62.4576 25.608 60.675 26.28 58.4723 26.28C55.915 26.28 53.9456 25.468 52.5643 23.844C51.2016 22.2013 50.5203 20.1013 50.5203 17.544C50.5203 14.072 51.211 11.4307 52.5923 9.62C53.9923 7.79067 56.307 6.66133 59.5363 6.232C61.235 6.008 62.3363 5.812 62.8403 5.644C63.251 5.532 63.6336 5.38267 63.9883 5.196ZM54.7203 18.216V18.664C54.7203 19.6907 55.0843 20.5867 55.8123 21.352C56.559 22.1173 57.4363 22.5 58.4443 22.5C59.4896 22.5 60.283 22.2013 60.8243 21.604C61.3843 20.988 61.6643 20.148 61.6643 19.084C61.6643 18.1133 61.3843 17.3667 60.8243 16.844C60.2643 16.3213 59.499 16.06 58.5283 16.06C56.755 16.06 55.4856 16.7787 54.7203 18.216ZM78.682 20.848L81.118 23.312C79.5686 25.2533 77.478 26.224 74.846 26.224C72.5126 26.224 70.618 25.5333 69.162 24.152C67.706 22.7707 66.978 20.9507 66.978 18.692C66.978 16.396 67.6686 14.5667 69.05 13.204C70.45 11.8227 72.2793 11.132 74.538 11.132C76.5726 11.132 78.234 11.748 79.522 12.98C80.8286 14.212 81.482 15.8267 81.482 17.824C81.482 18.3467 81.4073 19.1307 81.258 20.176H71.234C71.4206 20.9413 71.8593 21.5107 72.55 21.884C73.2406 22.2573 74.0246 22.444 74.902 22.444C76.5446 22.444 77.8046 21.912 78.682 20.848ZM74.398 14.772C72.8486 14.772 71.822 15.4067 71.318 16.676H77.282C76.946 15.4067 75.9846 14.772 74.398 14.772ZM87.3513 31.6H83.2913V11.44H87.3513V12.196C87.7059 11.86 88.2006 11.5987 88.8353 11.412C89.4699 11.2253 90.0579 11.132 90.5993 11.132C92.7833 11.132 94.5193 11.8227 95.8073 13.204C97.1139 14.5853 97.7673 16.3493 97.7673 18.496C97.7673 20.7173 97.0953 22.5653 95.7513 24.04C94.4073 25.496 92.6526 26.224 90.4873 26.224C88.7699 26.224 87.7246 25.9813 87.3513 25.496V31.6ZM90.1513 14.912C88.9006 14.912 87.9673 15.4627 87.3513 16.564V21.212C87.5753 21.5853 87.9393 21.884 88.4433 22.108C88.9473 22.332 89.4419 22.444 89.9273 22.444C91.0286 22.444 91.9059 22.1173 92.5593 21.464C93.2313 20.792 93.5673 19.9053 93.5673 18.804C93.5673 17.6093 93.2873 16.6667 92.7273 15.976C92.1673 15.2667 91.3086 14.912 90.1513 14.912ZM118.04 26H99.5881V11.44H103.648V22.22H106.784V11.44H110.844V22.22H113.98V11.44H118.04V26ZM119.861 18.692C119.861 16.452 120.617 14.632 122.129 13.232C123.641 11.832 125.507 11.132 127.729 11.132C129.987 11.132 131.873 11.8413 133.385 13.26C134.897 14.66 135.653 16.4707 135.653 18.692C135.653 20.932 134.887 22.752 133.357 24.152C131.826 25.5333 129.95 26.224 127.729 26.224C125.507 26.224 123.641 25.5147 122.129 24.096C120.617 22.6773 119.861 20.876 119.861 18.692ZM124.061 18.692C124.061 19.756 124.406 20.652 125.097 21.38C125.806 22.0893 126.683 22.444 127.729 22.444C128.849 22.444 129.745 22.0987 130.417 21.408C131.107 20.7173 131.453 19.812 131.453 18.692C131.453 17.5907 131.107 16.6853 130.417 15.976C129.726 15.2667 128.83 14.912 127.729 14.912C126.627 14.912 125.741 15.2667 125.069 15.976C124.397 16.6853 124.061 17.5907 124.061 18.692ZM150.983 26H146.923V15.22H141.519V26H137.459V11.44H150.983V26Z" fill="black"/>
</g>
<defs>
<clipPath id="clip0_2007_195">
<rect width="153" height="32" fill="white"/>
</clipPath>
</defs>
</svg>
